<?xml version="1.0" standalone="no"?>
<!DOCTYPE svg PUBLIC "-//W3C//DTD SVG 20010904//EN"
 "http://www.w3.org/TR/2001/REC-SVG-20010904/DTD/svg10.dtd">
<svg version="1.0" xmlns="http://www.w3.org/2000/svg"
 width="576.000000pt" height="576.000000pt" viewBox="0 0 576.000000 576.000000"
 preserveAspectRatio="xMidYMid meet">
<metadata>
Created by potrace 1.11, written by Peter Selinger 2001-2013
</metadata>
<g transform="translate(0.000000,576.000000) scale(0.100000,-0.100000)"
fill="#000000" stroke="none">
<path d="M576 5122 c-2 -1 -47 -4 -102 -6 -131 -6 -194 -26 -279 -91 -61 -47
-88 -77 -128 -145 -72 -120 -67 24 -67 -1988 0 -1169 3 -1828 10 -1863 38
-207 221 -370 430 -385 91 -6 158 -6 169 1 5 3 12 1 15 -3 3 -5 26 -6 51 -2
25 4 45 4 45 1 0 -3 30 -5 67 -3 38 2 73 3 78 3 6 0 55 0 110 -1 55 -1 102 -1
105 0 16 4 120 4 120 0 0 -3 30 -4 67 -2 38 2 73 3 78 3 6 0 55 0 110 -1 55
-1 102 -1 105 0 16 4 120 4 120 0 0 -3 30 -4 67 -2 38 2 73 3 78 3 6 0 55 0
110 -1 55 -1 102 -1 105 0 16 4 120 4 120 0 0 -3 30 -4 67 -2 38 2 73 3 78 3
6 0 55 0 110 -1 55 -1 102 -1 105 0 16 4 120 4 120 0 0 -3 30 -4 67 -2 38 2
73 3 78 3 6 0 55 0 110 -1 55 -1 102 -1 105 0 16 4 120 4 120 0 0 -3 30 -4 67
-2 38 2 73 3 78 3 6 0 55 0 110 -1 55 -1 102 -1 105 0 16 4 120 4 120 0 0 -3
30 -4 67 -2 38 2 73 3 78 3 6 0 55 0 110 -1 55 -1 102 -1 105 0 16 4 120 4
120 0 0 -3 30 -4 67 -2 38 2 73 3 78 3 6 0 55 0 110 -1 55 -1 102 -1 105 0 16
4 120 4 120 0 0 -3 30 -4 67 -2 38 2 73 3 78 3 6 0 55 0 110 -1 55 -1 102 -1
105 0 18 5 120 4 120 -1 0 -3 20 -3 45 1 24 4 49 4 56 0 6 -4 26 -4 44 0 18 4
39 4 46 -1 7 -4 16 -6 19 -4 3 2 36 6 73 9 37 3 77 11 87 16 11 6 20 8 20 5 0
-12 136 67 170 98 60 56 108 130 134 207 l25 75 1 1837 c0 1011 -4 1848 -9
1860 -5 13 -14 41 -21 63 -7 22 -27 63 -45 90 -85 133 -217 210 -379 221 -44
3 -84 8 -88 11 -5 2 -8 0 -8 -5 0 -5 -19 -6 -42 -3 -24 4 -60 4 -81 0 -21 -3
-40 -3 -42 1 -2 4 -25 4 -49 0 -25 -4 -51 -3 -58 1 -6 4 -15 6 -18 4 -3 -2
-31 -4 -61 -4 -30 -1 -70 -2 -89 -2 -19 -1 -42 -1 -50 0 -8 0 -40 0 -70 0 -30
-1 -61 -1 -67 0 -14 0 -164 1 -185 0 -38 -1 -227 0 -253 1 -16 1 -36 2 -42 1
-27 -2 -41 -2 -138 -2 -55 -1 -109 -1 -120 -1 -11 0 -42 0 -70 1 -27 1 -78 0
-113 -1 -34 -2 -62 0 -62 3 0 3 -20 3 -45 -1 -24 -4 -49 -4 -55 0 -7 4 -26 4
-43 1 -18 -4 -49 -4 -69 -1 -20 4 -42 4 -48 0 -6 -4 -30 -4 -53 0 -23 3 -53 3
-67 0 -14 -3 -43 -3 -65 0 -22 3 -51 3 -65 0 -14 -4 -39 -3 -55 0 -17 4 -39 4
-49 0 -10 -3 -39 -4 -65 0 -25 3 -68 3 -94 0 -27 -4 -51 -2 -53 2 -3 5 -9 6
-13 4 -9 -6 -45 -7 -171 -7 -52 0 -102 0 -110 0 -40 -1 -229 0 -255 1 -16 1
-36 2 -42 1 -32 -3 -55 -3 -298 -1 -144 0 -178 0 -185 -5 -5 -3 -11 -1 -14 3
-3 5 -26 6 -50 2 -25 -4 -50 -4 -55 0 -6 3 -36 3 -66 0 -30 -3 -60 -3 -66 0
-6 4 -27 4 -48 0 -20 -4 -45 -4 -55 0 -9 3 -44 3 -77 0 -33 -3 -62 -3 -64 1
-3 3 -25 3 -49 -1 -25 -4 -51 -3 -58 1 -6 4 -15 6 -18 4 -3 -2 -31 -4 -61 -4
-30 -1 -70 -2 -89 -2 -19 -1 -42 -1 -50 0 -8 0 -40 0 -70 0 -30 -1 -59 -1 -65
0 -62 3 -167 5 -169 3z m1314 -975 c140 -36 225 -83 316 -173 58 -57 137 -168
139 -194 0 -3 8 -25 18 -50 9 -25 20 -58 23 -75 12 -56 7 -290 -6 -290 -1 0
-3 -11 -6 -25 -2 -14 -22 -63 -45 -108 -57 -117 -164 -224 -281 -281 -45 -23
-94 -43 -108 -45 -14 -3 -25 -5 -25 -6 0 -16 -231 -20 -281 -5 -24 7 -45 10
-48 7 -3 -2 -12 1 -21 8 -8 7 -15 10 -15 6 0 -3 -37 13 -82 37 -147 76 -263
212 -319 377 -36 106 -34 252 4 395 2 6 9 21 17 35 7 14 12 25 10 25 -12 0 69
123 112 170 45 49 164 137 185 137 4 0 13 4 19 9 15 13 93 39 134 45 19 3 37
8 39 9 4 5 200 -2 221 -8z m1801 -306 c7 4 17 5 21 3 4 -3 50 -5 100 -5 51 1
161 1 243 0 83 0 155 0 160 0 6 0 91 0 190 0 99 0 189 0 200 1 73 1 108 -1
116 -6 5 -3 9 -2 9 3 0 4 55 7 122 6 214 -3 217 -3 250 -37 17 -17 26 -32 19
-34 -6 -2 -9 -8 -6 -12 6 -10 7 -120 2 -160 -6 -43 -26 -69 -60 -78 -17 -5
-33 -6 -35 -2 -1 4 -23 4 -47 0 -25 -4 -47 -5 -49 -2 -3 2 -49 3 -103 3 -54
-1 -172 -1 -263 -1 -91 1 -174 1 -185 0 -110 -4 -135 -4 -135 1 0 3 -20 3 -45
-1 -24 -4 -49 -4 -56 0 -6 4 -26 4 -44 0 -18 -4 -38 -4 -45 0 -7 4 -26 4 -44
1 -17 -4 -44 -5 -60 -1 -16 3 -63 3 -104 0 -40 -3 -76 -2 -79 3 -2 4 -8 5 -12
2 -10 -6 -125 -7 -165 -2 -38 6 -62 38 -65 90 -1 22 -4 44 -7 49 -3 4 -1 8 4
8 4 0 6 22 2 50 -5 39 -2 56 12 77 21 34 72 52 114 43 18 -4 38 -4 45 1z m22
-640 c21 3 40 3 42 -1 2 -4 25 -4 49 0 25 4 50 4 55 0 6 -3 36 -3 66 0 30 3
60 3 66 0 6 -4 27 -4 48 0 20 4 45 4 55 0 9 -3 44 -3 77 0 33 3 62 3 64 -1 3
-3 25 -3 49 1 25 4 50 4 55 0 6 -3 36 -3 66 0 30 3 60 3 66 0 6 -4 27 -4 48 0
20 4 46 4 57 0 10 -4 30 -4 43 0 14 3 44 3 68 0 24 -4 43 -4 43 -1 0 3 55 5
122 4 214 -3 217 -3 250 -37 17 -17 26 -32 19 -34 -6 -2 -9 -8 -6 -12 6 -10 7
-120 2 -160 -6 -43 -26 -69 -60 -78 -17 -5 -33 -6 -35 -2 -1 4 -23 4 -47 0
-25 -4 -47 -5 -49 -2 -3 2 -49 3 -103 3 -270 -3 -494 -2 -501 3 -4 2 -14 1
-20 -3 -7 -4 -33 -5 -57 -1 -25 4 -47 5 -49 2 -7 -6 -116 -8 -116 -2 0 3 -28
4 -62 3 -35 -1 -63 -2 -63 -3 0 -3 -345 1 -369 4 -38 5 -62 37 -65 89 -1 22
-4 44 -7 49 -3 4 -1 8 4 8 4 0 6 22 2 50 -11 82 36 131 115 120 22 -3 57 -3
78 1z m-42 -644 c32 -1 59 2 59 6 0 5 4 6 8 3 5 -3 44 -5 88 -6 65 0 353 -1
389 -1 6 0 91 0 190 0 99 0 189 0 200 1 73 1 108 -1 116 -6 5 -3 9 -2 9 3 0 4
55 7 122 6 214 -3 217 -3 250 -37 17 -17 26 -32 19 -34 -6 -2 -9 -8 -6 -12 6
-10 7 -120 2 -160 -6 -43 -26 -69 -60 -78 -17 -5 -33 -6 -35 -2 -1 4 -23 4
-47 0 -25 -4 -47 -5 -49 -2 -3 2 -49 3 -103 3 -54 -1 -172 -1 -263 -1 -91 1
-174 1 -185 0 -110 -4 -135 -4 -135 1 0 3 -20 3 -45 -1 -24 -4 -49 -4 -56 0
-6 4 -26 4 -44 0 -18 -4 -38 -4 -45 0 -7 4 -26 4 -44 1 -17 -4 -44 -5 -60 -1
-16 3 -63 3 -105 0 -42 -3 -97 -3 -123 0 -27 3 -48 2 -48 -3 0 -4 -4 -6 -8 -3
-5 3 -28 6 -52 8 -30 1 -50 9 -68 28 -23 23 -25 32 -23 105 1 89 5 121 16 148
8 20 56 48 68 40 4 -3 35 -6 68 -6z m-2270 -12 c183 -65 410 -81 577 -40 12 3
32 7 44 10 12 2 50 14 85 26 85 28 210 21 333 -17 25 -8 52 -17 60 -21 8 -3
17 -7 20 -8 17 -4 82 -43 125 -75 136 -101 217 -238 231 -391 3 -41 6 -78 6
-84 -1 -19 -1 -90 0 -105 3 -45 -13 -114 -33 -142 -51 -72 -124 -103 -234 -98
-22 1 -47 2 -55 1 -97 -2 -152 -1 -158 3 -4 3 -14 1 -20 -3 -7 -4 -33 -5 -57
-1 -25 4 -47 5 -49 2 -7 -6 -116 -8 -116 -2 0 4 -117 4 -130 -1 -3 -1 -8 -1
-11 -1 -10 1 -159 2 -319 3 -85 0 -162 0 -170 0 -8 1 -28 1 -45 0 -16 -1 -37
-1 -45 0 -8 0 -33 0 -55 0 -22 -1 -49 -1 -60 -1 -11 0 -42 0 -68 0 -27 0 -53
2 -58 5 -5 4 -9 3 -9 -2 0 -4 -22 -8 -50 -8 -27 0 -50 2 -50 5 0 4 -111 4
-195 -1 -132 -7 -234 63 -250 172 -14 88 -6 274 15 349 38 139 164 286 305
354 117 57 134 63 203 72 26 3 48 7 50 9 11 10 146 3 183 -10z"/>
</g>
</svg>
